<mxfile host="app.diagrams.net" agent="Mozilla/5.0 (Windows NT 10.0; Win64; x64) AppleWebKit/537.36 (KHTML, like Gecko) Chrome/128.0.0.0 Safari/537.36" version="24.7.12">
  <diagram name="Страница — 1" id="XtzVLiHhUV0LLomx344u">
    <mxGraphModel dx="1434" dy="780" grid="1" gridSize="10" guides="1" tooltips="1" connect="1" arrows="1" fold="1" page="1" pageScale="1" pageWidth="827" pageHeight="1169" math="0" shadow="0">
      <root>
        <mxCell id="0" />
        <mxCell id="1" parent="0" />
        <mxCell id="CcqM75w7lat9s2YGrgjJ-1" value="" style="ellipse;whiteSpace=wrap;html=1;aspect=fixed;" vertex="1" parent="1">
          <mxGeometry x="150" y="140" width="80" height="80" as="geometry" />
        </mxCell>
        <mxCell id="CcqM75w7lat9s2YGrgjJ-2" value="" style="ellipse;whiteSpace=wrap;html=1;aspect=fixed;" vertex="1" parent="1">
          <mxGeometry x="230" y="20" width="80" height="80" as="geometry" />
        </mxCell>
        <mxCell id="CcqM75w7lat9s2YGrgjJ-3" value="" style="ellipse;whiteSpace=wrap;html=1;aspect=fixed;" vertex="1" parent="1">
          <mxGeometry x="490" y="270" width="80" height="80" as="geometry" />
        </mxCell>
        <mxCell id="CcqM75w7lat9s2YGrgjJ-4" value="" style="ellipse;whiteSpace=wrap;html=1;aspect=fixed;" vertex="1" parent="1">
          <mxGeometry x="230" y="270" width="80" height="80" as="geometry" />
        </mxCell>
        <mxCell id="CcqM75w7lat9s2YGrgjJ-6" value="" style="ellipse;whiteSpace=wrap;html=1;aspect=fixed;" vertex="1" parent="1">
          <mxGeometry x="570" y="140" width="80" height="80" as="geometry" />
        </mxCell>
        <mxCell id="CcqM75w7lat9s2YGrgjJ-8" value="" style="endArrow=none;html=1;rounded=0;fillColor=#e51400;strokeColor=#B20000;" edge="1" parent="1" source="CcqM75w7lat9s2YGrgjJ-4" target="CcqM75w7lat9s2YGrgjJ-3">
          <mxGeometry width="50" height="50" relative="1" as="geometry">
            <mxPoint x="370" y="330" as="sourcePoint" />
            <mxPoint x="420" y="280" as="targetPoint" />
          </mxGeometry>
        </mxCell>
        <mxCell id="CcqM75w7lat9s2YGrgjJ-10" value="" style="endArrow=none;html=1;rounded=0;fillColor=#e51400;strokeColor=#B20000;" edge="1" parent="1" source="CcqM75w7lat9s2YGrgjJ-1" target="CcqM75w7lat9s2YGrgjJ-2">
          <mxGeometry width="50" height="50" relative="1" as="geometry">
            <mxPoint x="310" y="170" as="sourcePoint" />
            <mxPoint x="360" y="120" as="targetPoint" />
          </mxGeometry>
        </mxCell>
        <mxCell id="CcqM75w7lat9s2YGrgjJ-11" value="" style="endArrow=none;html=1;rounded=0;fillColor=#e51400;strokeColor=#B20000;" edge="1" parent="1" source="CcqM75w7lat9s2YGrgjJ-4" target="CcqM75w7lat9s2YGrgjJ-2">
          <mxGeometry width="50" height="50" relative="1" as="geometry">
            <mxPoint x="300" y="200" as="sourcePoint" />
            <mxPoint x="350" y="150" as="targetPoint" />
          </mxGeometry>
        </mxCell>
        <mxCell id="CcqM75w7lat9s2YGrgjJ-12" value="" style="endArrow=none;html=1;rounded=0;fillColor=#e51400;strokeColor=#B20000;" edge="1" parent="1" source="CcqM75w7lat9s2YGrgjJ-1" target="CcqM75w7lat9s2YGrgjJ-3">
          <mxGeometry width="50" height="50" relative="1" as="geometry">
            <mxPoint x="400" y="230" as="sourcePoint" />
            <mxPoint x="450" y="180" as="targetPoint" />
          </mxGeometry>
        </mxCell>
        <mxCell id="CcqM75w7lat9s2YGrgjJ-13" value="" style="endArrow=none;html=1;rounded=0;fillColor=#e51400;strokeColor=#B20000;" edge="1" parent="1" source="CcqM75w7lat9s2YGrgjJ-3" target="CcqM75w7lat9s2YGrgjJ-6">
          <mxGeometry width="50" height="50" relative="1" as="geometry">
            <mxPoint x="440" y="210" as="sourcePoint" />
            <mxPoint x="490" y="160" as="targetPoint" />
          </mxGeometry>
        </mxCell>
        <mxCell id="CcqM75w7lat9s2YGrgjJ-14" value="" style="endArrow=none;html=1;rounded=0;fillColor=#e51400;strokeColor=#B20000;" edge="1" parent="1" source="CcqM75w7lat9s2YGrgjJ-2" target="CcqM75w7lat9s2YGrgjJ-6">
          <mxGeometry width="50" height="50" relative="1" as="geometry">
            <mxPoint x="450" y="150" as="sourcePoint" />
            <mxPoint x="500" y="100" as="targetPoint" />
          </mxGeometry>
        </mxCell>
        <mxCell id="CcqM75w7lat9s2YGrgjJ-16" value="" style="ellipse;whiteSpace=wrap;html=1;aspect=fixed;" vertex="1" parent="1">
          <mxGeometry x="10" y="435" width="80" height="80" as="geometry" />
        </mxCell>
        <mxCell id="CcqM75w7lat9s2YGrgjJ-17" value="" style="ellipse;whiteSpace=wrap;html=1;aspect=fixed;" vertex="1" parent="1">
          <mxGeometry x="90" y="560" width="80" height="80" as="geometry" />
        </mxCell>
        <mxCell id="CcqM75w7lat9s2YGrgjJ-18" value="" style="ellipse;whiteSpace=wrap;html=1;aspect=fixed;" vertex="1" parent="1">
          <mxGeometry x="120" y="330" width="80" height="80" as="geometry" />
        </mxCell>
        <mxCell id="CcqM75w7lat9s2YGrgjJ-19" value="" style="ellipse;whiteSpace=wrap;html=1;aspect=fixed;" vertex="1" parent="1">
          <mxGeometry x="274" y="560" width="80" height="80" as="geometry" />
        </mxCell>
        <mxCell id="CcqM75w7lat9s2YGrgjJ-20" value="" style="ellipse;whiteSpace=wrap;html=1;aspect=fixed;" vertex="1" parent="1">
          <mxGeometry x="390" y="435" width="80" height="80" as="geometry" />
        </mxCell>
        <mxCell id="CcqM75w7lat9s2YGrgjJ-21" value="" style="endArrow=none;html=1;rounded=0;" edge="1" parent="1" source="CcqM75w7lat9s2YGrgjJ-18" target="CcqM75w7lat9s2YGrgjJ-20">
          <mxGeometry width="50" height="50" relative="1" as="geometry">
            <mxPoint x="264" y="440" as="sourcePoint" />
            <mxPoint x="314" y="390" as="targetPoint" />
          </mxGeometry>
        </mxCell>
        <mxCell id="CcqM75w7lat9s2YGrgjJ-22" value="" style="endArrow=none;html=1;rounded=0;" edge="1" parent="1" source="CcqM75w7lat9s2YGrgjJ-17" target="CcqM75w7lat9s2YGrgjJ-18">
          <mxGeometry width="50" height="50" relative="1" as="geometry">
            <mxPoint x="290" y="360" as="sourcePoint" />
            <mxPoint x="340" y="310" as="targetPoint" />
          </mxGeometry>
        </mxCell>
        <mxCell id="CcqM75w7lat9s2YGrgjJ-23" value="" style="endArrow=none;html=1;rounded=0;" edge="1" parent="1" source="CcqM75w7lat9s2YGrgjJ-16" target="CcqM75w7lat9s2YGrgjJ-18">
          <mxGeometry width="50" height="50" relative="1" as="geometry">
            <mxPoint y="380" as="sourcePoint" />
            <mxPoint x="50" y="330" as="targetPoint" />
          </mxGeometry>
        </mxCell>
        <mxCell id="CcqM75w7lat9s2YGrgjJ-24" value="" style="endArrow=none;html=1;rounded=0;" edge="1" parent="1" source="CcqM75w7lat9s2YGrgjJ-19" target="CcqM75w7lat9s2YGrgjJ-16">
          <mxGeometry width="50" height="50" relative="1" as="geometry">
            <mxPoint x="-50" y="630" as="sourcePoint" />
            <mxPoint y="580" as="targetPoint" />
          </mxGeometry>
        </mxCell>
        <mxCell id="CcqM75w7lat9s2YGrgjJ-25" value="" style="endArrow=none;html=1;rounded=0;" edge="1" parent="1" source="CcqM75w7lat9s2YGrgjJ-19" target="CcqM75w7lat9s2YGrgjJ-20">
          <mxGeometry width="50" height="50" relative="1" as="geometry">
            <mxPoint x="440" y="610" as="sourcePoint" />
            <mxPoint x="490" y="560" as="targetPoint" />
          </mxGeometry>
        </mxCell>
        <mxCell id="CcqM75w7lat9s2YGrgjJ-26" value="" style="ellipse;whiteSpace=wrap;html=1;aspect=fixed;" vertex="1" parent="1">
          <mxGeometry x="470" y="640" width="80" height="80" as="geometry" />
        </mxCell>
        <mxCell id="CcqM75w7lat9s2YGrgjJ-27" value="" style="ellipse;whiteSpace=wrap;html=1;aspect=fixed;" vertex="1" parent="1">
          <mxGeometry x="670" y="640" width="80" height="80" as="geometry" />
        </mxCell>
        <mxCell id="CcqM75w7lat9s2YGrgjJ-28" value="" style="ellipse;whiteSpace=wrap;html=1;aspect=fixed;" vertex="1" parent="1">
          <mxGeometry x="570" y="435" width="80" height="80" as="geometry" />
        </mxCell>
        <mxCell id="CcqM75w7lat9s2YGrgjJ-29" value="" style="endArrow=none;html=1;rounded=0;" edge="1" parent="1" source="CcqM75w7lat9s2YGrgjJ-26" target="CcqM75w7lat9s2YGrgjJ-28">
          <mxGeometry width="50" height="50" relative="1" as="geometry">
            <mxPoint x="330" y="760" as="sourcePoint" />
            <mxPoint x="380" y="710" as="targetPoint" />
          </mxGeometry>
        </mxCell>
        <mxCell id="CcqM75w7lat9s2YGrgjJ-30" value="" style="endArrow=none;html=1;rounded=0;" edge="1" parent="1" source="CcqM75w7lat9s2YGrgjJ-27" target="CcqM75w7lat9s2YGrgjJ-28">
          <mxGeometry width="50" height="50" relative="1" as="geometry">
            <mxPoint x="650" y="600" as="sourcePoint" />
            <mxPoint x="700" y="550" as="targetPoint" />
          </mxGeometry>
        </mxCell>
        <mxCell id="CcqM75w7lat9s2YGrgjJ-31" value="" style="endArrow=none;html=1;rounded=0;" edge="1" parent="1" source="CcqM75w7lat9s2YGrgjJ-26" target="CcqM75w7lat9s2YGrgjJ-27">
          <mxGeometry width="50" height="50" relative="1" as="geometry">
            <mxPoint x="580" y="780" as="sourcePoint" />
            <mxPoint x="630" y="730" as="targetPoint" />
          </mxGeometry>
        </mxCell>
        <mxCell id="CcqM75w7lat9s2YGrgjJ-33" value="" style="ellipse;whiteSpace=wrap;html=1;aspect=fixed;" vertex="1" parent="1">
          <mxGeometry x="440" y="515" width="80" height="80" as="geometry" />
        </mxCell>
        <mxCell id="CcqM75w7lat9s2YGrgjJ-34" value="" style="ellipse;whiteSpace=wrap;html=1;aspect=fixed;" vertex="1" parent="1">
          <mxGeometry x="730" y="480" width="80" height="80" as="geometry" />
        </mxCell>
        <mxCell id="CcqM75w7lat9s2YGrgjJ-35" value="" style="endArrow=none;html=1;rounded=0;" edge="1" parent="1" source="CcqM75w7lat9s2YGrgjJ-33" target="CcqM75w7lat9s2YGrgjJ-27">
          <mxGeometry width="50" height="50" relative="1" as="geometry">
            <mxPoint x="590" y="630" as="sourcePoint" />
            <mxPoint x="640" y="580" as="targetPoint" />
          </mxGeometry>
        </mxCell>
        <mxCell id="CcqM75w7lat9s2YGrgjJ-36" value="" style="endArrow=none;html=1;rounded=0;" edge="1" parent="1" source="CcqM75w7lat9s2YGrgjJ-28" target="CcqM75w7lat9s2YGrgjJ-34">
          <mxGeometry width="50" height="50" relative="1" as="geometry">
            <mxPoint x="580" y="590" as="sourcePoint" />
            <mxPoint x="630" y="540" as="targetPoint" />
          </mxGeometry>
        </mxCell>
      </root>
    </mxGraphModel>
  </diagram>
</mxfile>
